<svg xmlns="http://www.w3.org/2000/svg" viewBox="0 0 640 640" role="img" aria-labelledby="title desc">
  <title id="title">Streetscape lamp collection</title>
  <desc id="desc">A standard square thumbnail showing roadway, civic, and path-scale lamps.</desc>
  <defs>
    <linearGradient id="bg" x1="0" y1="0" x2="1" y2="1">
      <stop offset="0" stop-color="#edf2f5"/>
      <stop offset="1" stop-color="#cbd5dc"/>
    </linearGradient>
    <linearGradient id="metal" x1="0" y1="0" x2="1" y2="0">
      <stop offset="0" stop-color="#151a1f"/>
      <stop offset=".5" stop-color="#606b74"/>
      <stop offset="1" stop-color="#252c32"/>
    </linearGradient>
    <linearGradient id="lens" x1="0" y1="0" x2="0" y2="1">
      <stop offset="0" stop-color="#fff4c7"/>
      <stop offset="1" stop-color="#d69a43"/>
    </linearGradient>
    <filter id="shadow" x="-30%" y="-50%" width="160%" height="210%">
      <feGaussianBlur stdDeviation="11"/>
    </filter>
  </defs>
  <rect width="640" height="640" rx="44" fill="url(#bg)"/>
  <ellipse cx="320" cy="558" rx="170" ry="28" fill="#4c5962" opacity=".22" filter="url(#shadow)"/>
  <path d="M111 535 126 174h30l15 361z" fill="url(#metal)"/>
  <path d="M94 538h104l-15-25h-74z" fill="#232a30"/>
  <path d="M141 177Q230 112 318 159" fill="none" stroke="#252c32" stroke-width="24" stroke-linecap="round"/>
  <path d="M290 159h165" stroke="#252c32" stroke-width="21" stroke-linecap="round"/>
  <path d="M417 144 509 116l47 17-17 58-93 10z" fill="#4d5962"/>
  <path d="M427 179h88l-12 20h-72z" fill="url(#lens)"/>
  <path d="M325 530 335 278h25l10 252z" fill="url(#metal)"/>
  <circle cx="347" cy="264" r="36" fill="url(#lens)" stroke="#252c32" stroke-width="8"/>
  <path d="M477 535v-116" stroke="url(#metal)" stroke-width="26" stroke-linecap="round"/>
  <path d="M458 419h38l10 18h-58z" fill="url(#lens)" stroke="#252c32" stroke-width="7"/>
  <circle cx="136" cy="536" r="7" fill="#11161b"/>
  <circle cx="169" cy="536" r="7" fill="#11161b"/>
  <circle cx="335" cy="536" r="7" fill="#11161b"/>
  <circle cx="362" cy="536" r="7" fill="#11161b"/>
</svg>
